<svg width="160" height="160" viewBox="0 0 160 160" fill="none" xmlns="http://www.w3.org/2000/svg">
<path d="M0 0H160V160H0V0Z" fill="white" fill-opacity="0.01"/>
<path d="M13.3337 46.6667L10.3522 40.7037C8.09366 41.833 6.66699 44.1417 6.66699 46.6667H13.3337ZM80.0003 13.3333L82.9817 7.37049C81.105 6.43206 78.8957 6.43206 77.019 7.37049L80.0003 13.3333ZM146.667 46.6667H153.334C153.334 44.1417 151.907 41.833 149.648 40.7037L146.667 46.6667ZM146.667 113.333L149.648 119.296C151.907 118.167 153.334 115.858 153.334 113.333H146.667ZM80.0003 146.667L77.019 152.63C78.8957 153.568 81.105 153.568 82.9817 152.63L80.0003 146.667ZM13.3337 113.333H6.66699C6.66699 115.858 8.09366 118.167 10.3522 119.296L13.3337 113.333ZM16.3151 52.6297L82.9817 19.2962L77.019 7.37049L10.3522 40.7037L16.3151 52.6297ZM140 46.6667V113.333H153.334V46.6667H140ZM143.686 107.37L77.019 140.704L82.9817 152.63L149.648 119.296L143.686 107.37ZM82.9817 140.704L16.3151 107.37L10.3522 119.296L77.019 152.63L82.9817 140.704ZM20.0003 113.333V46.6667H6.66699V113.333H20.0003ZM149.648 40.7037L82.9817 7.37049L77.019 19.2962L143.686 52.6297L149.648 40.7037Z" fill="black"/>
<path d="M13.333 46.6667L79.9997 80" stroke="black" stroke-width="23.4125" stroke-linecap="round" stroke-linejoin="round"/>
<path d="M80 146.667V80" stroke="black" stroke-width="23.4125" stroke-linecap="round" stroke-linejoin="round"/>
<path d="M146.667 46.6667L80 80" stroke="black" stroke-width="23.4125" stroke-linecap="round" stroke-linejoin="round"/>
<path d="M116.314 35.963C119.608 34.3163 120.942 30.3118 119.296 27.0186C117.649 23.7254 113.645 22.3906 110.352 24.0372L116.314 35.963ZM43.6849 57.3703C40.3915 59.017 39.0569 63.0217 40.7032 66.3147C42.3499 69.608 46.3545 70.9427 49.6475 69.2963L43.6849 57.3703ZM110.352 24.0372L43.6849 57.3703L49.6475 69.2963L116.314 35.963L110.352 24.0372Z" fill="black"/>
</svg>
